<?xml version="1.0" encoding="UTF-8" standalone="no"?>
<svg width="180px" height="180px" viewBox="0 0 180 180" version="1.1" xmlns="http://www.w3.org/2000/svg" xmlns:xlink="http://www.w3.org/1999/xlink">
    <!-- Generator: Sketch 41.1 (35376) - http://www.bohemiancoding.com/sketch -->
    <title>headway-logo-mark-white</title>
    <desc>Created with Sketch.</desc>
    <defs></defs>
    <g id="Page-1" stroke="none" stroke-width="1" fill="none" fill-rule="evenodd">
        <g id="Final-H-Mark" transform="translate(-510.000000, -161.000000)">
            <g id="headway-logo-mark-white" transform="translate(510.000000, 161.000000)">
                <path d="M0,90 C0,40.2943725 40.2974469,0 90,0 C139.705627,0 180,40.2974469 180,90 C180,139.705627 139.702553,180 90,180 C40.2943725,180 0,139.702553 0,90 Z M10,90 C10,45.81722 45.8075054,10 90,10 C134.18278,10 170,45.8075054 170,90 C170,134.18278 134.192495,170 90,170 C45.81722,170 10,134.192495 10,90 Z" id="Circle" fill="#FFFFFF"></path>
                <path d="M119.375,117.551329 L119.375,60.625 L106.319444,60.625 L106.319444,83.4722222 L73.6805556,83.4722222 L73.6805556,60.625 L60.625,60.625 L60.625,108.982281 C64.6455756,108.856955 68.9887178,108.961699 73.6805335,109.357426 L73.6805556,96.5277778 L106.319444,96.5277778 L106.319444,115.486083 C110.940604,116.463923 115.287791,117.138025 119.375,117.551329 Z" id="H" fill="#FFFFFF"></path>
                <g id="Wave" transform="translate(31.000000, 116.000000)" fill="#31AAB7">
                    <path d="M0,6.56613962 C12.9941973,0.792958469 34.2833851,-3.95551925 69.2485617,5.06775216 C90.644901,10.5893881 106.626677,9.87284494 118.382837,6.56613962 C118.382837,7.18118758 101.57642,42 59.5,42 C17.4235802,42 0,6.4361242 0,6.56613962 Z" id="Path-64-Copy"></path>
                </g>
            </g>
        </g>
    </g>
</svg>