<?xml version="1.0" encoding="UTF-8"?>
<svg width="2000px" height="1626px" viewBox="0 0 2000 1626" version="1.1" xmlns="http://www.w3.org/2000/svg" xmlns:xlink="http://www.w3.org/1999/xlink">
    <!-- Generator: Sketch 42 (36781) - http://www.bohemiancoding.com/sketch -->
    <title>twitter-logo</title>
    <desc>Created with Sketch.</desc>
    <defs></defs>
    <g id="Page-1" stroke="none" stroke-width="1" fill="none" fill-rule="evenodd">
        <path d="M1999.9999,192.4 C1926.4199,225.04 1847.3299,247.09 1764.3399,257.01 C1849.0399,206.23 1914.1099,125.82 1944.7499,30 C1865.4599,77.03 1777.6499,111.17 1684.1799,129.57 C1609.3399,49.82 1502.6999,0 1384.6799,0 C1158.0799,0 974.3519,183.71 974.3519,410.31 C974.3519,442.47 977.9799,473.79 984.9769,503.82 C643.9609,486.71 341.6089,323.35 139.2379,75.1 C103.9139,135.7 83.6796,206.19 83.6796,281.39 C83.6796,423.75 156.1169,549.34 266.2229,622.92 C198.9609,620.79 135.6879,602.33 80.371,571.6 C80.332,573.31 80.332,575.02 80.332,576.76 C80.332,775.563 221.773,941.395 409.477,979.102 C375.051,988.477 338.801,993.497 301.379,993.497 C274.938,993.497 249.234,990.919 224.176,986.133 C276.391,1149.141 427.926,1267.782 607.48,1271.079 C467.051,1381.141 290.129,1446.739 97.8828,1446.739 C64.7617,1446.739 32.0977,1444.79 2.84217094e-14,1441.001 C181.586,1557.4186 397.27,1625.36 628.988,1625.36 C1383.72,1625.36 1796.45,1000.122 1796.45,457.89 C1796.45,440.1 1796.04,422.41 1795.25,404.81 C1875.4299,346.95 1944.9899,274.69 1999.9999,192.4" id="twitter-logo" fill="#000000" fill-rule="nonzero"></path>
    </g>
</svg>